<svg version="1.1" id="Layer_1" xmlns="http://www.w3.org/2000/svg" xmlns:xlink="http://www.w3.org/1999/xlink" x="0px" y="0px"
	 width="100%" viewBox="0 0 828 828" enable-background="new 0 0 828 828" xml:space="preserve">
<path fill="none" opacity="1.000000" stroke="#000000" stroke-linecap="round" stroke-linejoin="round" stroke-width="5.000000"
	d="
M78.000000,648.250000 
	C68.688835,655.838501 60.495743,664.260620 56.477955,675.992432 
	C52.748466,686.882385 57.191830,696.347839 68.028557,700.424072 
	C75.363777,703.183289 83.235939,703.848511 91.000740,703.922058 
	C111.216782,704.113647 131.347855,705.674988 151.502487,706.960999 
	C165.156113,707.832092 178.839188,708.232544 192.498428,709.026855 
	C207.671936,709.909363 222.829681,711.060242 238.001144,711.981323 
	C250.495560,712.739868 263.003052,713.281311 275.499237,714.013062 
	C291.669006,714.959778 307.830994,716.040283 324.000763,716.987000 
	C336.496948,717.718750 349.003510,718.274292 361.499115,719.014893 
	C377.336090,719.953430 393.164551,721.034790 409.000793,721.986938 
	C418.496521,722.557922 428.000488,722.990967 437.499146,723.515686 
	C438.339386,723.562073 439.167450,723.828369 440.040771,724.000366 
	C440.359680,725.828857 441.119080,727.716553 440.908661,729.489136 
	C440.469147,733.191956 442.532776,734.817200 445.502594,734.883118 
	C449.160980,734.964478 453.518951,736.545532 455.989197,731.994141 
	C456.236725,731.538025 456.561951,730.950439 456.465881,730.507385 
	C454.889923,723.240295 456.847626,715.826782 455.177917,708.459656 
	C453.940063,702.997986 453.933502,697.153015 454.126801,691.504333 
	C454.280792,687.004517 452.886658,683.815613 449.533875,680.960205 
	C442.005066,674.548401 433.950256,668.848022 426.002197,662.997009 
	C403.356262,646.326233 379.476959,631.413025 356.975647,614.532471 
	C353.197266,611.697937 348.490051,610.719543 343.987000,610.093506 
	C322.936707,607.167175 301.781189,605.661133 280.498688,605.852661 
	C277.552704,605.879211 275.562500,609.111084 272.500000,607.500000 
"/>
<path fill="none" opacity="1.000000" stroke="#000000" stroke-linecap="round" stroke-linejoin="round" stroke-width="5.000000"
	d="
M631.500000,379.500000 
	C632.754150,362.681763 634.981628,345.931061 634.564453,328.998413 
	C634.423645,323.282898 639.487061,318.744263 646.988708,316.462952 
	C656.303650,313.630280 665.883850,312.774078 675.501587,312.577484 
	C684.827576,312.386871 694.182190,312.567719 703.493530,313.110962 
	C708.216492,313.386536 712.899414,314.562347 717.548096,315.822632 
	C720.478882,316.617157 722.029236,318.348053 722.920471,320.532440 
	C729.086426,335.645966 734.073792,351.056091 735.568481,367.493774 
	C737.532471,389.091278 733.192078,408.785858 719.500183,426.000122 
	C705.250122,443.916107 686.104309,455.088379 666.013672,465.027679 
	C651.170044,472.371185 635.536743,478.022400 621.011780,486.021393 
	C602.923828,495.982513 584.663452,505.659851 567.970093,517.959412 
	C564.131287,520.787842 561.875305,524.150208 561.989502,529.000244 
	C562.143433,535.537109 558.315247,540.600037 555.472961,545.985718 
	C549.730347,556.866943 544.095276,567.818665 537.923157,578.455444 
	C532.242188,588.245789 526.712463,598.146790 519.555115,607.044312 
	C511.574341,616.965393 506.875397,628.673096 502.484070,640.494080 
	C500.402985,646.096191 498.348999,651.695007 495.591675,657.047241 
	C493.749756,660.622620 491.295013,662.005920 487.500000,661.500000 
"/>
<path fill="none" opacity="1.000000" stroke="#000000" stroke-linecap="round" stroke-linejoin="round" stroke-width="5.000000"
	d="
M64.500000,687.500000 
	C65.790794,691.100586 69.484329,690.956665 72.025291,691.326050 
	C85.931381,693.347839 99.943306,694.408386 113.996994,695.064453 
	C129.343567,695.780884 144.662781,697.065308 160.001205,697.979858 
	C172.828674,698.744690 185.670197,699.272461 198.499115,700.015381 
	C214.669464,700.951721 230.830307,702.052429 247.000946,702.983521 
	C259.996246,703.731812 273.003540,704.271729 285.999115,705.015686 
	C302.336151,705.950928 318.664276,707.041138 335.000763,707.986755 
	C347.663574,708.719727 360.336426,709.280212 372.999237,710.013184 
	C389.335724,710.958801 405.665619,712.017395 422.000732,712.987793 
	C426.162598,713.235107 430.333344,713.333374 434.500000,713.500000 
"/>
<path fill="none" opacity="1.000000" stroke="#000000" stroke-linecap="round" stroke-linejoin="round" stroke-width="5.000000"
	d="
M55.500000,468.000000 
	C54.416416,474.333344 55.720867,480.659424 55.606522,487.001923 
	C55.477467,494.160248 56.216030,501.331543 56.478432,508.500793 
	C56.603020,511.904663 56.155445,515.411560 58.056168,518.465027 
	C58.621048,519.372498 58.747097,520.394348 58.435017,520.964417 
	C55.664486,526.025635 57.810318,530.956848 58.321327,536.018066 
	C58.580154,538.581543 58.472847,541.350037 58.391575,543.996643 
	C58.194958,550.399536 59.011105,552.190613 65.009262,553.456116 
	C77.451271,556.081116 89.894005,558.669983 102.487259,560.583801 
	C120.037834,563.251038 137.483414,566.601624 155.006241,569.461792 
	C165.472229,571.170166 176.015518,572.400269 186.495514,574.028931 
	C196.349854,575.560425 206.143082,577.492188 216.006500,578.956177 
	C226.310745,580.485535 236.682770,581.554565 246.994812,583.036133 
	C255.020706,584.189209 262.957245,586.107483 271.010834,586.888367 
	C281.075378,587.864197 290.987274,589.757141 300.996460,591.027771 
	C311.845398,592.405090 322.666901,593.998230 333.499939,595.500427 
	C346.482147,597.300537 359.463867,599.104004 372.548431,600.920288 
	C376.812927,594.882324 378.005585,587.901978 379.756531,581.434082 
	C382.492432,571.327942 386.257996,561.585205 389.160492,551.546387 
	C394.076263,534.544189 400.034790,517.844604 405.490692,500.996979 
	C411.531403,482.343506 417.542114,463.680054 423.487885,444.996155 
	C429.210419,427.013916 434.838898,409.001740 440.475861,390.992432 
	C440.665894,390.385284 440.500000,389.666656 440.500000,389.000000 
"/>
<path fill="none" opacity="1.000000" stroke="#000000" stroke-linecap="round" stroke-linejoin="round" stroke-width="5.000000"
	d="
M65.500000,678.500000 
	C72.745888,682.843323 80.968704,683.222473 89.006081,683.930969 
	C106.653152,685.486694 124.327667,686.748535 142.001984,687.971252 
	C153.824860,688.789124 165.668793,689.297974 177.499435,690.009460 
	C190.668594,690.801514 203.835495,691.634033 216.999359,692.509705 
	C228.835754,693.296997 240.667709,694.152161 252.499725,695.003723 
	C266.167542,695.987549 279.829163,697.062195 293.501282,697.980713 
	C304.828308,698.741699 316.169739,699.285339 327.499237,700.011963 
	C342.335693,700.963318 357.163513,702.049805 372.001007,702.984253 
	C383.829407,703.729187 395.668335,704.305237 407.499573,705.007385 
	C421.001465,705.808716 434.509003,706.553162 447.990173,707.623901 
	C449.987366,707.782532 452.005585,707.766357 454.000000,708.000000 
"/>
<path fill="none" opacity="1.000000" stroke="#000000" stroke-linecap="round" stroke-linejoin="round" stroke-width="5.000000"
	d="
M675.500000,251.500000 
	C682.589417,253.141052 689.488525,255.678146 697.005737,255.070709 
	C701.289185,254.724564 704.746277,253.162354 707.489502,249.990921 
	C716.812012,239.213516 723.640137,226.868820 729.434631,213.970642 
	C733.629333,204.633514 737.551086,195.062851 736.961548,184.502151 
	C736.258423,171.907791 728.280579,165.251389 718.003174,166.041656 
	C712.304016,166.479889 707.134033,168.782593 702.525330,172.035858 
	C688.363525,182.032578 675.273499,193.381577 661.982239,204.478699 
	C650.333435,214.204498 639.313293,224.742661 626.473389,232.958374 
	C619.056763,237.703903 611.020081,241.381760 603.392151,245.814423 
	C586.444580,255.662811 570.023438,266.233398 553.964294,277.448853 
	C538.010803,288.590485 522.369629,300.209442 505.514404,310.024719 
	C499.146332,313.733002 492.546295,316.984131 485.475220,318.908997 
	C476.848083,321.257507 474.273071,325.223358 477.000000,333.500000 
"/>
<path fill="none" opacity="1.000000" stroke="#000000" stroke-linecap="round" stroke-linejoin="round" stroke-width="5.000000"
	d="
M433.000000,355.750000 
	C427.025757,353.812531 420.990417,355.651642 414.999847,355.645691 
	C404.000366,355.634735 393.003052,356.583984 381.999390,356.982910 
	C357.501373,357.871063 332.999603,358.654816 308.500153,359.504669 
	C294.832611,359.978760 281.164368,360.445038 267.500519,361.012360 
	C244.498642,361.967346 221.501328,363.032196 198.499390,363.985199 
	C188.336349,364.406250 178.166885,364.673523 167.999954,364.998596 
	C147.000107,365.670013 125.977783,365.949158 105.009354,367.161743 
	C94.492447,367.769958 84.579018,372.055969 74.539330,375.128510 
	C68.569366,376.955505 62.593815,378.953278 56.894287,381.787415 
	C54.313061,383.070953 53.960667,384.261932 53.985786,386.500153 
	C54.034420,390.832947 54.000000,395.166656 54.000000,399.500000 
"/>
<path fill="none" opacity="1.000000" stroke="#000000" stroke-linecap="round" stroke-linejoin="round" stroke-width="5.000000"
	d="
M447.500000,354.000000 
	C444.690155,354.881927 441.851898,354.472961 438.998077,354.278137 
	C436.284424,354.092926 434.337646,354.145996 433.251923,357.928802 
	C431.927551,362.543182 427.939117,366.133453 426.374329,370.959259 
	C425.795593,372.744049 423.833649,372.827789 421.489777,372.717438 
	C413.182678,372.326294 404.830933,372.757904 396.500763,373.023499 
	C389.663727,373.241486 382.836700,373.784668 375.999390,373.978912 
	C350.667572,374.698547 325.332153,375.291656 300.000458,376.016235 
	C285.664551,376.426331 271.334869,377.049805 256.999664,377.489471 
	C228.667450,378.358490 200.332428,379.137329 172.000397,380.012573 
	C158.164810,380.439972 144.334030,381.020630 130.499832,381.495056 
	C110.500488,382.180939 90.499825,382.828339 70.500748,383.521698 
	C69.828171,383.545013 69.166664,382.251129 68.500000,383.500000 
"/>
<path fill="none" opacity="1.000000" stroke="#000000" stroke-linecap="round" stroke-linejoin="round" stroke-width="5.000000"
	d="
M413.500000,390.000000 
	C407.601807,387.834076 401.493256,389.181213 395.498627,389.097595 
	C388.837921,389.004669 382.170074,389.783295 375.499390,389.979156 
	C351.000946,390.698456 326.498627,391.287628 302.000549,392.018250 
	C288.664154,392.416016 275.335205,393.057373 261.999573,393.487030 
	C239.834442,394.201172 217.666061,394.813751 195.500214,395.506897 
	C180.665756,395.970734 165.833618,396.508759 150.999924,396.997589 
	C135.500275,397.508392 120.000801,398.029053 104.498825,398.457520 
	C102.851234,398.503082 101.077461,399.058685 99.500000,398.000000 
"/>
<path fill="none" opacity="1.000000" stroke="#000000" stroke-linecap="round" stroke-linejoin="round" stroke-width="5.000000"
	d="
M665.500000,371.500000 
	C655.753113,373.945862 647.031311,378.917206 638.068542,383.145325 
	C626.619324,388.546356 615.703003,395.068939 604.492432,400.985596 
	C581.367432,413.190308 558.704651,426.189819 536.481567,439.970276 
	C528.523560,444.904968 520.680908,449.995422 513.524231,456.028717 
	C501.604095,466.077759 493.412506,479.159760 485.035156,492.022888 
	C472.999451,510.503387 462.100342,529.664307 451.479980,548.989014 
	C439.879303,570.097473 428.623108,591.382141 418.000000,613.000000 
"/>
<path fill="none" opacity="1.000000" stroke="#000000" stroke-linecap="round" stroke-linejoin="round" stroke-width="5.000000"
	d="
M347.000000,589.000000 
	C338.833344,587.666687 330.677765,586.260254 322.497406,585.017029 
	C310.007263,583.118774 297.501373,581.323975 284.999634,579.502625 
	C272.334656,577.657471 259.649567,575.942810 247.004959,573.968262 
	C235.148438,572.116760 223.352417,569.876953 211.494080,568.038208 
	C201.689743,566.517883 191.757751,565.731445 182.022141,563.883362 
	C173.027161,562.175842 163.956268,560.879028 154.953079,559.261047 
	C148.036102,558.018005 140.983963,557.099670 134.003510,555.978210 
	C120.991295,553.887573 107.989105,551.729614 95.003204,549.481445 
	C82.988205,547.401428 70.999992,545.166687 58.999992,543.000061 
"/>
<path fill="none" opacity="1.000000" stroke="#000000" stroke-linecap="round" stroke-linejoin="round" stroke-width="5.000000"
	d="
M95.500000,511.500000 
	C94.520256,511.886292 94.057854,510.838745 94.065170,510.501404 
	C94.166786,505.819641 95.606033,501.097412 93.500000,496.500000 
	C97.277870,492.095795 94.803093,486.762177 95.231537,481.975983 
	C96.359032,469.380402 96.179100,456.666931 96.471085,443.999329 
	C96.489906,443.182770 96.093552,442.356598 95.773735,441.063507 
	C100.804535,439.045380 106.032097,439.638031 110.989571,440.109619 
	C128.303909,441.756805 145.656555,442.793732 162.998962,444.014679 
	C181.003601,445.282196 198.994171,446.752686 217.001709,447.974731 
	C233.493622,449.093903 250.004593,449.930542 266.498566,451.021667 
	C280.005615,451.915192 293.494751,453.079041 307.001465,453.978149 
	C320.994934,454.909607 335.001648,455.640259 348.999451,456.508911 
	C359.002289,457.129700 369.001984,457.805939 378.997650,458.532379 
	C380.348083,458.630554 381.666656,459.166656 383.000000,459.500000 
"/>
<path fill="none" opacity="1.000000" stroke="#000000" stroke-linecap="round" stroke-linejoin="round" stroke-width="5.000000"
	d="
M405.500000,497.000000 
	C400.141083,495.169525 394.490692,495.735962 388.990051,495.084076 
	C381.864197,494.239563 374.665314,494.018585 367.500275,493.496155 
	C351.666046,492.341736 335.827423,491.240845 320.001678,489.978943 
	C304.493958,488.742401 289.006653,487.248932 273.498047,486.024902 
	C259.340637,484.907501 245.163483,484.042786 231.001083,482.985565 
	C220.828873,482.226288 210.666229,481.338654 200.500122,480.498505 
	C190.499557,479.671997 180.502151,478.806458 170.499420,478.007233 
	C159.668655,477.141876 148.828873,476.386963 138.001144,475.486328 
	C124.663055,474.376831 111.329529,473.208130 98.001404,471.984650 
	C89.827126,471.234314 81.665245,470.346924 73.500565,469.494629 
	C68.997437,469.024597 64.509552,468.364075 59.996700,468.046967 
	C56.902794,467.829590 53.483654,467.699280 53.164814,463.985840 
	C52.907536,460.989380 54.531425,458.000763 57.514870,456.530151 
	C68.105011,451.310120 78.637383,445.946655 89.990753,442.469788 
	C91.834259,441.905212 93.639359,441.866272 95.500000,442.000000 
"/>
<path fill="none" opacity="1.000000" stroke="#000000" stroke-linecap="round" stroke-linejoin="round" stroke-width="5.000000"
	d="
M724.000000,439.500000 
	C724.772888,447.030273 725.688171,454.530518 726.880737,462.018982 
	C728.088074,469.599548 728.280640,477.338379 729.011108,484.998932 
	C730.473694,500.335846 731.864380,515.681458 733.534851,530.996216 
	C735.554565,549.512207 737.942688,567.988037 739.970459,586.503235 
	C742.159302,606.488892 740.773682,626.492676 740.091553,646.503113 
	C739.756409,656.336243 739.460876,666.169556 739.029358,676.001282 
	C738.100403,697.163757 737.240479,718.330505 736.598206,739.502991 
	C736.499634,742.753296 734.458069,743.026306 732.487854,743.442505 
	C727.214478,744.556213 721.799683,744.280396 716.507202,743.900024 
	C706.709656,743.195923 696.942505,741.998230 687.497192,739.008911 
	C673.354553,734.533081 665.428894,724.447205 662.109680,710.473938 
	C661.402283,707.495728 661.154785,703.746216 665.503296,702.511536 
	C668.569214,701.640930 668.457458,699.054321 667.918701,697.021545 
	C664.008606,682.268188 665.040405,667.458191 666.308105,652.483765 
	C667.034180,643.906738 666.163391,635.138428 665.425049,626.506409 
	C664.221558,612.436523 662.472778,598.423950 660.062378,584.489197 
	C658.387207,574.803955 655.183472,565.538574 652.884766,556.027832 
	C650.043640,544.273193 648.234497,532.347961 646.086914,520.484253 
	C644.018433,509.057007 642.666626,497.500000 640.999939,486.000000 
"/>
<path fill="none" opacity="1.000000" stroke="#000000" stroke-linecap="round" stroke-linejoin="round" stroke-width="5.000000"
	d="
M301.500000,651.500061 
	C277.833344,650.833374 254.165802,650.195862 230.500320,649.489380 
	C215.665283,649.046509 200.836533,648.347961 185.999252,648.035645 
	C163.668793,647.565613 141.334091,647.236023 118.999527,647.059631 
	C112.335907,647.007080 105.642517,647.423828 99.008301,648.083374 
	C94.410828,648.540588 90.891579,651.661682 87.536179,654.542114 
	C79.406326,661.521240 71.758614,668.976318 66.500000,678.500000 
"/>
<path fill="none" opacity="1.000000" stroke="#000000" stroke-linecap="round" stroke-linejoin="round" stroke-width="5.000000"
	d="
M377.500000,533.000000 
	C369.166656,531.833313 360.830200,530.688660 352.500702,529.495178 
	C337.498260,527.345520 322.482513,525.280090 307.504425,522.971252 
	C288.819336,520.090881 270.214081,516.647278 251.482651,514.129089 
	C239.796463,512.558044 228.154922,510.744751 216.502792,508.981567 
	C203.823792,507.062988 191.182755,504.890594 178.496216,503.025787 
	C159.677505,500.259583 140.834732,497.656738 121.999039,495.006866 
	C117.185738,494.329681 112.473473,492.645355 107.500000,493.500000 
"/>
<path fill="none" opacity="1.000000" stroke="#000000" stroke-linecap="round" stroke-linejoin="round" stroke-width="5.000000"
	d="
M103.500000,512.500000 
	C116.000000,514.000000 128.505371,515.456787 140.998596,517.011353 
	C155.338013,518.795654 169.664597,520.683044 184.000580,522.495483 
	C198.664642,524.349365 213.334305,526.158875 227.999695,528.002502 
	C239.834549,529.490234 251.665649,531.008118 263.500275,532.497681 
	C275.498993,534.007996 287.522552,535.341736 299.493256,537.047241 
	C310.157593,538.566650 320.964264,539.082703 331.496643,541.514587 
	C334.221405,542.143738 335.970428,541.832703 336.579987,538.514709 
	C337.237152,534.937866 340.980804,532.770569 341.500000,529.000000 
"/>
<path fill="none" opacity="1.000000" stroke="#000000" stroke-linecap="round" stroke-linejoin="round" stroke-width="5.000000"
	d="
M76.500000,525.000000 
	C79.769608,528.524536 84.463753,528.025879 88.526299,528.874023 
	C100.649063,531.405212 112.846748,533.649170 125.036789,535.790588 
	C133.812103,537.332092 142.688263,538.559265 151.487839,540.070801 
	C160.830078,541.675659 170.207718,543.090210 179.538071,544.791138 
	C186.458832,546.052795 193.507523,546.967957 200.491364,548.055420 
	C210.181564,549.564270 219.854919,551.271423 229.532608,552.792603 
	C238.672897,554.229248 247.843353,555.595398 257.002747,556.981873 
	C265.185852,558.220642 273.374390,559.350586 281.519928,560.894958 
	C290.934296,562.679871 300.481384,563.833374 310.011383,564.898010 
	C312.856537,565.215942 315.307129,566.438171 318.000000,567.000000 
"/>
<path fill="none" opacity="1.000000" stroke="#000000" stroke-linecap="round" stroke-linejoin="round" stroke-width="5.000000"
	d="
M301.000000,639.000000 
	C298.754303,639.946716 296.409424,640.026306 294.000000,640.025146 
	C228.833328,639.993652 163.666672,640.000000 98.500000,640.000000 
"/>
<path fill="none" opacity="1.000000" stroke="#000000" stroke-linecap="round" stroke-linejoin="round" stroke-width="5.000000"
	d="
M75.500000,681.500000 
	C77.490730,672.007690 87.263451,660.408264 99.518524,659.185669 
	C109.269531,658.212952 119.129593,657.808716 129.000916,657.914490 
	C153.331451,658.175354 177.671265,657.702515 201.998795,658.077759 
	C230.332123,658.514709 258.665253,658.794495 286.998291,659.139282 
	C296.327545,659.252869 305.667969,659.270142 314.999634,659.513977 
	C317.082642,659.568298 319.110596,659.496826 321.000000,658.500000 
"/>
<path fill="none" opacity="1.000000" stroke="#000000" stroke-linecap="round" stroke-linejoin="round" stroke-width="5.000000"
	d="
M716.000000,314.500000 
	C717.740295,310.617249 716.601868,306.491455 717.026123,302.502777 
	C718.205505,291.413971 724.700500,283.364777 731.917358,275.424896 
	C747.640869,258.126160 757.893921,237.689407 762.803711,214.957611 
	C765.768494,201.230942 766.000549,187.108276 760.982544,173.506439 
	C757.502197,164.072678 751.483154,156.837692 742.555542,151.899582 
	C739.538208,150.230606 737.359802,150.850723 734.460388,151.889328 
	C728.149109,154.150055 722.250000,157.579758 714.989197,157.213760 
	C710.666138,156.995834 706.709167,159.653687 703.463806,162.964539 
	C698.106689,168.429794 692.374268,173.266708 684.528503,175.120743 
	C680.797363,176.002472 677.771545,178.862305 675.046631,181.547302 
	C668.074097,188.417618 660.752319,194.982788 655.000000,203.000000 
"/>
<path fill="none" opacity="1.000000" stroke="#000000" stroke-linecap="round" stroke-linejoin="round" stroke-width="5.000000"
	d="
M685.000000,234.500000 
	C666.495300,248.261856 647.245544,260.805664 626.519226,271.038971 
	C611.792114,278.310272 598.488220,288.092163 583.588501,295.185852 
	C572.903503,300.272980 561.653320,303.282013 550.450012,306.315460 
	C533.698547,310.851135 520.140747,320.619141 506.500000,330.500000 
"/>
<path fill="none" opacity="1.000000" stroke="#000000" stroke-linecap="round" stroke-linejoin="round" stroke-width="5.000000"
	d="
M660.500000,717.000000 
	C657.583252,716.666443 655.191589,718.436890 652.499023,718.995178 
	C647.502502,720.031006 642.528137,719.841736 637.493286,719.042358 
	C630.260681,717.893982 625.957092,720.238586 624.000000,726.000000 
	C621.446594,733.516907 623.633118,740.119629 630.014465,743.472473 
	C635.318909,746.259399 641.279602,746.080750 647.005066,746.412048 
	C657.987610,747.047668 669.000854,747.141357 679.999695,747.508545 
	C687.799072,747.768921 695.398315,748.414734 703.079163,750.738403 
	C712.074036,753.459595 721.666687,752.512085 731.000000,751.000000 
"/>
<path fill="none" opacity="1.000000" stroke="#000000" stroke-linecap="round" stroke-linejoin="round" stroke-width="5.000000"
	d="
M690.500000,436.000000 
	C680.048096,443.899536 668.674194,449.977264 656.000732,453.502625 
	C643.725647,456.917175 631.212646,458.651245 618.506409,459.586700 
	C603.937927,460.659241 589.455017,459.745605 575.009094,458.402008 
	C561.035645,457.102386 547.232178,454.433105 533.500000,451.500000 
"/>
<path fill="none" opacity="1.000000" stroke="#000000" stroke-linecap="round" stroke-linejoin="round" stroke-width="5.000000"
	d="
M439.500000,672.000000 
	C440.994659,670.401978 442.156097,669.195801 445.034363,669.848450 
	C453.546844,671.778748 462.309296,671.299988 470.994598,671.638550 
	C475.983795,671.833130 476.069489,668.633728 477.025360,665.507751 
	C478.026672,662.233215 477.711151,659.845276 474.015625,658.458374 
	C465.338867,655.202209 457.093964,650.990906 449.007507,646.486511 
	C440.820557,641.926025 432.846283,637.113037 427.443481,629.037781 
	C426.157806,627.116211 424.301208,625.494812 422.458740,624.052673 
	C420.898163,622.831177 418.989197,622.465759 416.993042,623.486389 
	C408.989929,627.578369 400.281830,628.465454 391.500732,629.011597 
	C390.162201,629.094788 388.833344,629.333313 387.500000,629.499939 
"/>
<path fill="none" opacity="1.000000" stroke="#000000" stroke-linecap="round" stroke-linejoin="round" stroke-width="5.000000"
	d="
M472.000000,739.000000 
	C482.634766,737.279053 492.208313,747.417114 494.433960,759.012695 
	C497.162354,773.227722 491.680878,786.976990 480.418152,792.842834 
	C464.109436,801.336731 442.054352,792.947754 437.606659,775.972046 
	C435.770386,768.963501 436.707855,761.797546 439.500000,755.000000 
"/>
<path fill="none" opacity="1.000000" stroke="#000000" stroke-linecap="round" stroke-linejoin="round" stroke-width="5.000000"
	d="
M116.000000,713.500000 
	C128.349716,720.907593 132.511642,732.558838 131.345947,745.986633 
	C129.929108,762.307373 121.033928,768.835938 105.992950,770.949829 
	C92.295723,772.874817 77.613235,761.314148 76.051651,747.494141 
	C75.300507,740.846558 76.505638,734.734741 83.000000,731.000000 
"/>
<path fill="none" opacity="1.000000" stroke="#000000" stroke-linecap="round" stroke-linejoin="round" stroke-width="5.000000"
	d="
M747.500000,81.500000 
	C747.408325,76.164322 747.808472,70.819984 747.011780,65.498238 
	C745.381714,54.610012 742.061462,44.544205 731.955933,38.574608 
	C725.116699,34.534485 717.362732,33.393291 709.504150,34.049561 
	C698.365906,34.979713 687.983521,38.308506 680.090698,46.586464 
	C675.345154,51.563499 674.552063,58.303764 673.739258,65.641121 
	C685.308777,63.867664 696.166443,63.612610 706.995056,64.108032 
	C713.470581,64.404297 720.106384,65.066422 725.500000,69.500000 
"/>
<path fill="none" opacity="1.000000" stroke="#000000" stroke-linecap="round" stroke-linejoin="round" stroke-width="5.000000"
	d="
M681.000000,476.250000 
	C687.666626,492.333344 693.663452,508.737427 701.171570,524.417847 
	C710.310730,543.504639 718.345154,563.238525 730.861267,580.600037 
	C732.148376,582.385437 733.802063,583.725037 735.000000,585.500000 
"/>
<path fill="none" opacity="1.000000" stroke="#000000" stroke-linecap="round" stroke-linejoin="round" stroke-width="5.000000"
	d="
M737.500000,104.000000 
	C731.085876,104.574760 728.800537,110.256660 732.533386,116.981468 
	C736.813660,124.692436 743.199402,130.651382 750.056030,135.927185 
	C761.334045,144.605011 770.522034,154.588440 775.080261,168.473648 
	C778.769531,179.711746 778.853333,190.780792 775.500000,202.000000 
"/>
<path fill="none" opacity="1.000000" stroke="#000000" stroke-linecap="round" stroke-linejoin="round" stroke-width="5.000000"
	d="
M535.500000,284.000000 
	C521.166687,290.666656 506.873718,297.422577 492.472931,303.940216 
	C488.652130,305.669495 484.557983,306.889435 480.486755,307.949219 
	C473.950104,309.650757 472.742981,311.313629 474.000000,318.000000 
"/>
<path fill="none" opacity="1.000000" stroke="#000000" stroke-linecap="round" stroke-linejoin="round" stroke-width="5.000000"
	d="
M425.500000,390.000000 
	C423.843719,396.653259 419.288452,401.754059 415.916687,407.450684 
	C406.658051,423.093536 396.958649,438.474854 387.513489,454.008179 
	C380.444824,465.633118 373.566132,477.374268 366.405884,488.941742 
	C365.619934,490.211395 365.605652,491.268280 365.500000,492.500000 
"/>
<path fill="none" opacity="1.000000" stroke="#000000" stroke-linecap="round" stroke-linejoin="round" stroke-width="5.000000"
	d="
M633.500000,470.000000 
	C626.049988,473.289551 618.768250,476.733429 610.530334,478.173645 
	C601.000549,479.839752 591.559021,480.489563 582.005188,479.452026 
	C576.809326,478.887726 571.666687,477.833344 566.500000,477.000000 
"/>
<path fill="none" opacity="1.000000" stroke="#000000" stroke-linecap="round" stroke-linejoin="round" stroke-width="5.000000"
	d="
M596.500000,490.500000 
	C589.580994,495.864807 581.596008,497.814362 573.000427,498.017975 
	C557.995422,498.373413 543.534912,495.697357 529.500000,490.500000 
"/>
<path fill="none" opacity="1.000000" stroke="#000000" stroke-linecap="round" stroke-linejoin="round" stroke-width="5.000000"
	d="
M751.000000,86.000000 
	C760.578796,102.778267 768.720581,120.229828 774.881226,138.539963 
	C776.058167,142.038101 777.838928,145.566910 777.500000,149.500000 
"/>
<path fill="none" opacity="1.000000" stroke="#000000" stroke-linecap="round" stroke-linejoin="round" stroke-width="5.000000"
	d="
M374.500000,633.000000 
	C372.123993,633.034607 369.609619,632.579163 367.516235,634.023499 
	C361.379547,638.257751 362.438324,646.196228 368.078217,649.880249 
	C373.037415,653.119690 378.436768,656.048340 384.047455,657.852356 
	C396.007843,661.697876 408.034851,665.480103 420.500000,667.500000 
"/>
<path fill="none" opacity="1.000000" stroke="#000000" stroke-linecap="round" stroke-linejoin="round" stroke-width="5.000000"
	d="
M320.500000,566.000000 
	C327.677490,568.190430 335.165466,568.697693 342.511780,569.929688 
	C354.968903,572.018860 367.500000,573.666687 380.000000,575.500000 
"/>
<path fill="none" opacity="1.000000" stroke="#000000" stroke-linecap="round" stroke-linejoin="round" stroke-width="5.000000"
	d="
M110.000000,732.500000 
	C117.431381,733.771912 122.500206,746.192993 117.964966,752.474731 
	C112.047234,760.671265 93.347710,762.533447 88.831985,751.066162 
	C87.646416,748.055542 87.337791,746.308350 90.000000,744.500000 
"/>
<path fill="none" opacity="1.000000" stroke="#000000" stroke-linecap="round" stroke-linejoin="round" stroke-width="5.000000"
	d="
M52.500000,399.500000 
	C53.684582,399.653229 54.154522,399.640594 54.145325,401.500732 
	C54.062901,418.166138 54.384525,434.833191 54.435539,451.500183 
	C54.441952,453.595337 55.153316,455.261230 56.000000,457.000000 
"/>
<path fill="none" opacity="1.000000" stroke="#000000" stroke-linecap="round" stroke-linejoin="round" stroke-width="5.000000"
	d="
M362.500000,640.500000 
	C360.896790,639.698730 359.174469,640.014160 357.499969,640.011841 
	C342.833344,639.991394 328.166656,639.999634 313.500000,640.000427 
	C311.444977,640.000488 309.349457,639.763428 307.500000,641.000000 
"/>
<path fill="none" opacity="1.000000" stroke="#000000" stroke-linecap="round" stroke-linejoin="round" stroke-width="5.000000"
	d="
M451.500000,359.500000 
	C448.084656,363.933868 447.481903,369.519989 445.698761,374.570190 
	C444.456696,378.087921 443.271698,381.767395 442.475464,385.494751 
	C442.033295,387.564758 441.403259,388.728821 438.471069,388.145355 
	C431.729004,386.803802 424.856659,389.810699 417.986694,388.052032 
	C415.742401,387.477539 414.341675,389.205536 413.528931,391.013000 
	C406.712891,406.171417 397.422119,419.956848 389.451874,434.473572 
	C387.406677,438.198639 385.845581,442.234528 383.000000,445.500000 
"/>
<path fill="none" opacity="1.000000" stroke="#000000" stroke-linecap="round" stroke-linejoin="round" stroke-width="5.000000"
	d="
M651.500000,263.500000 
	C651.186584,272.323578 648.605957,280.795807 647.466492,289.495605 
	C646.459656,297.183197 645.150269,304.830933 644.014648,312.502167 
	C643.803162,313.930939 644.219910,315.278351 645.000000,316.500000 
"/>
<path fill="none" opacity="1.000000" stroke="#000000" stroke-linecap="round" stroke-linejoin="round" stroke-width="5.000000"
	d="
M717.500000,128.499969 
	C711.000000,131.499969 704.518616,134.541138 697.994385,137.487518 
	C692.308655,140.055267 689.750488,139.528519 685.506226,134.994171 
	C680.228088,129.355240 677.156128,122.391174 674.020691,115.490608 
	C671.811035,110.627541 673.278137,105.782066 674.525208,101.006577 
	C675.247742,98.239517 675.606567,95.500702 673.969055,93.020424 
	C671.731873,89.631714 671.329590,86.190834 673.223877,82.541359 
	C669.000000,79.307602 664.995117,82.302650 661.002319,82.538948 
	C659.321777,82.638405 657.557312,83.688950 656.027527,83.368584 
	C654.089478,82.962746 651.993958,82.151382 653.426270,78.966850 
	C656.292480,72.594429 661.864929,69.067657 669.476135,70.617218 
	C678.098755,72.372696 686.899658,73.258667 695.135925,77.217178 
	C698.656128,78.909027 703.709473,77.864510 707.983887,77.362648 
	C710.528870,77.063843 712.272827,77.034988 713.510864,79.494514 
	C717.287354,86.996483 724.468384,90.186386 731.507141,93.484779 
	C743.062927,98.899872 751.270630,106.731628 751.500000,120.500000 
"/>
<path fill="none" opacity="1.000000" stroke="#000000" stroke-linecap="round" stroke-linejoin="round" stroke-width="5.000000"
	d="
M658.500000,216.500000 
	C668.400269,220.284897 678.039001,224.569092 688.384216,227.420120 
	C695.010498,229.246246 699.622437,235.930649 703.060669,242.468109 
	C704.096985,244.438599 705.019897,246.637039 707.000000,248.000000 
"/>
<path fill="none" opacity="1.000000" stroke="#000000" stroke-linecap="round" stroke-linejoin="round" stroke-width="5.000000"
	d="
M374.500000,660.500061 
	C360.833344,660.333374 347.166412,660.183228 333.500305,659.979736 
	C331.729889,659.953430 330.047638,660.071594 328.500000,661.000000 
"/>
<path fill="none" opacity="1.000000" stroke="#000000" stroke-linecap="round" stroke-linejoin="round" stroke-width="5.000000"
	d="
M476.000000,325.000000 
	C473.318909,323.975220 471.159576,324.384064 468.411835,325.832764 
	C461.828186,329.303955 454.635040,331.644989 448.519562,336.027283 
	C442.520813,340.325928 439.308777,346.498840 437.500000,353.500000 
"/>
<path fill="none" opacity="1.000000" stroke="#000000" stroke-linecap="round" stroke-linejoin="round" stroke-width="5.000000"
	d="
M678.000000,126.500000 
	C673.916260,128.670670 674.220337,132.943344 673.597656,136.517014 
	C672.354553,143.651428 670.954773,150.746918 673.862000,158.054901 
	C675.944580,163.290192 679.006104,166.537125 684.500000,167.500000 
"/>
<path fill="none" opacity="1.000000" stroke="#000000" stroke-linecap="round" stroke-linejoin="round" stroke-width="5.000000"
	d="
M99.000000,383.000000 
	C99.509666,388.000000 97.608093,393.000000 99.130768,398.827179 
	C84.192154,399.219757 69.346077,399.609863 54.500000,400.000000 
"/>
<path fill="none" opacity="1.000000" stroke="#000000" stroke-linecap="round" stroke-linejoin="round" stroke-width="5.000000"
	d="
M457.000000,730.500000 
	C459.610626,731.563354 462.350189,731.019592 464.997589,730.929260 
	C468.735352,730.801575 470.881775,732.253723 470.971802,736.000671 
	C471.252075,747.669250 472.723145,759.330017 471.829529,770.986938 
	C471.590881,774.099854 471.589203,777.663818 469.500000,780.500000 
"/>
<path fill="none" opacity="1.000000" stroke="#000000" stroke-linecap="round" stroke-linejoin="round" stroke-width="5.000000"
	d="
M98.000000,399.500000 
	C97.666672,411.166656 97.305054,422.832672 97.029358,434.500702 
	C96.986160,436.329071 97.333336,438.166656 97.500000,440.000000 
"/>
<path fill="none" opacity="1.000000" stroke="#000000" stroke-linecap="round" stroke-linejoin="round" stroke-width="5.000000"
	d="
M728.000000,102.500000 
	C726.173340,107.335869 722.930359,111.707664 722.549072,117.003532 
	C721.730225,128.374619 723.606323,136.739685 736.000000,143.500000 
"/>
<path fill="none" opacity="1.000000" stroke="#000000" stroke-linecap="round" stroke-linejoin="round" stroke-width="5.000000"
	d="
M779.000000,208.500000 
	C777.567017,223.745468 773.591248,237.784729 760.500000,247.500000 
"/>
<path fill="none" opacity="1.000000" stroke="#000000" stroke-linecap="round" stroke-linejoin="round" stroke-width="5.000000"
	d="
M336.500000,541.000000 
	C342.457001,543.293030 348.833954,543.002075 355.006012,543.961426 
	C361.479126,544.967590 368.000000,545.666626 374.500000,546.500000 
"/>
<path fill="none" opacity="1.000000" stroke="#000000" stroke-linecap="round" stroke-linejoin="round" stroke-width="5.000000"
	d="
M481.000000,348.500000 
	C479.728302,346.028931 477.303345,345.038269 474.984528,344.035767 
	C472.363068,342.902374 470.322479,341.344177 469.241028,338.182007 
	C474.806396,334.335358 481.285980,332.959991 487.512390,331.040222 
	C490.943176,329.982391 494.467529,329.139893 498.007660,328.545624 
	C503.233154,327.668488 506.071350,329.133545 507.500031,333.000000 
	C508.912292,336.822144 507.408630,340.352844 502.988159,342.980072 
	C496.977539,346.552338 490.256500,348.205231 483.490204,349.446655 
	C473.315887,351.313354 464.543213,354.213928 461.272766,365.936615 
	C459.646423,371.765991 458.771759,377.743744 456.967407,383.489777 
	C454.803192,390.381775 454.678497,397.737640 452.005829,404.502289 
	C449.319061,411.302612 446.042969,416.236938 439.500000,417.500000 
"/>
<path fill="none" opacity="1.000000" stroke="#000000" stroke-linecap="round" stroke-linejoin="round" stroke-width="4.000000"
	d="
M93.000000,496.500000 
	C92.333336,496.500000 91.530876,496.254089 91.019989,496.536194 
	C79.958969,502.643951 68.248367,507.827118 60.000000,518.000000 
"/>
<path fill="none" opacity="1.000000" stroke="#000000" stroke-linecap="round" stroke-linejoin="round" stroke-width="5.000000"
	d="
M362.500000,494.500000 
	C357.803406,504.306763 351.296448,513.045349 345.936951,522.464111 
	C345.005951,524.100220 344.471283,525.755188 344.000000,527.500000 
"/>
<path fill="none" opacity="1.000000" stroke="#000000" stroke-linecap="round" stroke-linejoin="round" stroke-width="5.000000"
	d="
M107.000000,713.500000 
	C107.500000,718.166687 107.685936,722.894226 108.576233,727.485229 
	C109.803062,733.811646 108.858711,739.895874 107.487953,745.997314 
	C106.201820,751.722107 101.300461,753.675598 95.088417,749.372375 
	C92.869980,747.835571 91.298927,745.010315 90.073517,742.464600 
	C87.162964,736.418213 84.500969,730.403564 79.072205,725.912720 
	C74.550850,722.172668 73.317642,716.783020 74.000000,711.000000 
"/>
<path fill="none" opacity="1.000000" stroke="#000000" stroke-linecap="round" stroke-linejoin="round" stroke-width="5.000000"
	d="
M433.000000,734.000000 
	C439.324951,744.911255 447.090576,754.888123 451.781128,766.890137 
	C454.574738,774.038391 461.822632,778.125977 469.050842,780.865906 
	C471.142731,781.658813 473.758179,781.742126 476.066650,779.570862 
	C483.806854,772.290955 484.310150,768.067810 478.000000,757.500000 
"/>
<path fill="none" opacity="1.000000" stroke="#000000" stroke-linecap="round" stroke-linejoin="round" stroke-width="5.000000"
	d="
M274.500000,608.500000 
	C274.385437,611.557678 276.734924,613.096069 278.498322,615.001526 
	C285.865540,622.962097 294.464996,629.742737 301.000000,638.500000 
	C306.279022,639.529358 308.056915,644.794373 311.938843,647.585083 
	C317.590027,651.647644 321.518677,657.534668 327.257507,661.824402 
	C333.093933,666.186951 335.510834,673.687500 333.960175,681.492065 
	C333.189453,685.370972 332.000000,689.166687 331.000000,693.000000 
"/>
<path fill="none" opacity="1.000000" stroke="#000000" stroke-linecap="round" stroke-linejoin="round" stroke-width="5.000000"
	d="
M451.000000,767.500000 
	C447.493866,768.553528 448.469757,771.109985 449.002899,773.499329 
	C451.078156,782.799805 461.791626,787.082642 469.000000,781.500000 
"/>
<path fill="none" opacity="1.000000" stroke="#000000" stroke-linecap="round" stroke-linejoin="round" stroke-width="5.000000"
	d="
M124.000000,659.000000 
	C124.694771,662.431458 122.880104,664.960510 121.009468,667.506958 
	C117.476654,672.316162 113.968552,677.144592 110.538269,682.026917 
	C110.090828,682.663696 110.928810,683.819092 110.000000,684.500000 
"/>
<path fill="none" opacity="1.000000" stroke="#000000" stroke-linecap="round" stroke-linejoin="round" stroke-width="5.000000"
	d="
M683.500000,139.500000 
	C683.333313,140.500000 683.360413,141.583801 682.969849,142.486954 
	C679.342102,150.875504 680.480469,153.959778 688.470032,158.058365 
	C690.118713,158.904099 691.632996,159.667755 693.500000,159.500000 
"/>
<path fill="none" opacity="1.000000" stroke="#000000" stroke-linecap="round" stroke-linejoin="round" stroke-width="5.000000"
	d="
M333.000000,542.500000 
	C331.281738,548.278137 327.303375,552.819702 324.430878,557.961365 
	C320.934845,564.219055 316.558838,569.971924 313.500000,576.500000 
"/>
<path fill="none" opacity="1.000000" stroke="#000000" stroke-linecap="round" stroke-linejoin="round" stroke-width="5.000000"
	d="
M713.000000,78.000000 
	C717.044861,74.346024 721.939819,74.225082 727.001343,74.472122 
	C733.403931,74.784622 739.366760,76.498169 745.022766,79.456482 
	C745.346924,79.626045 746.000000,79.166672 746.500000,79.000008 
"/>
<path fill="none" opacity="1.000000" stroke="#000000" stroke-linecap="round" stroke-linejoin="round" stroke-width="4.000000"
	d="
M716.500000,484.500000 
	C714.833313,480.166687 713.343445,475.753326 711.432373,471.530609 
	C710.321167,469.075195 709.151978,466.184296 705.500000,466.500000 
"/>
<path fill="none" opacity="1.000000" stroke="#000000" stroke-linecap="round" stroke-linejoin="round" stroke-width="5.000000"
	d="
M386.500000,458.000000 
	C392.697479,459.957367 399.094116,460.022461 405.500000,460.000000 
"/>
<path fill="none" opacity="1.000000" stroke="#000000" stroke-linecap="round" stroke-linejoin="round" stroke-width="5.000000"
	d="
M469.000000,338.500000 
	C462.334473,340.910431 456.098145,344.114899 450.500000,348.500000 
"/>
<path fill="none" opacity="1.000000" stroke="#000000" stroke-linecap="round" stroke-linejoin="round" stroke-width="5.000000"
	d="
M702.500000,141.500000 
	C705.319214,146.877533 706.293518,152.906204 708.500000,158.500000 
"/>
<path fill="none" opacity="1.000000" stroke="#000000" stroke-linecap="round" stroke-linejoin="round" stroke-width="5.000000"
	d="
M685.000000,94.500000 
	C685.086670,97.048569 683.850464,99.220558 682.996826,101.498817 
	C681.197876,106.300041 682.030029,107.509842 687.500000,108.000000 
"/>
<path fill="none" opacity="1.000000" stroke="#000000" stroke-linecap="round" stroke-linejoin="round" stroke-width="5.000000"
	d="
M94.000000,512.000000 
	C92.779137,515.230530 89.205223,514.754639 86.965477,516.454529 
	C78.601112,522.802856 69.247665,527.791931 61.471355,534.968933 
	C60.855247,535.537659 59.833336,535.666687 59.000004,536.000000 
"/>
<path fill="none" opacity="1.000000" stroke="#000000" stroke-linecap="round" stroke-linejoin="round" stroke-width="5.000000"
	d="
M104.000000,660.000000 
	C103.558456,665.694153 97.509842,667.382446 95.418549,671.962830 
	C94.776527,673.369019 93.166679,674.333374 92.000015,675.500000 
"/>
<path fill="none" opacity="1.000000" stroke="#000000" stroke-linecap="round" stroke-linejoin="round" stroke-width="5.000000"
	d="
M423.500000,374.000000 
	C423.041626,377.937469 419.959198,380.555939 418.356689,383.931976 
	C417.759308,385.190521 417.605652,386.268280 417.500000,387.500000 
"/>
<path fill="none" opacity="1.000000" stroke="#000000" stroke-linecap="round" stroke-linejoin="round" stroke-width="5.000000"
	d="
M445.500000,359.500000 
	C443.334198,360.467255 443.212463,362.875580 442.077789,364.552643 
	C437.882202,370.753632 433.950592,377.136597 430.055023,383.533508 
	C429.491669,384.458557 429.666687,385.833344 429.500031,387.000000 
"/>
<path fill="none" opacity="1.000000" stroke="#000000" stroke-linecap="round" stroke-linejoin="round" stroke-width="4.000000"
	d="
M59.000000,521.000000 
	C62.467422,523.995300 67.797089,522.927551 71.000000,526.500000 
"/>
<path fill="none" opacity="1.000000" stroke="#000000" stroke-linecap="round" stroke-linejoin="round" stroke-width="5.000000"
	d="
M695.000000,115.500000 
	C691.081177,118.065186 686.716675,116.916496 682.500000,117.000000 
"/>
<path fill="none" opacity="1.000000" stroke="#000000" stroke-linecap="round" stroke-linejoin="round" stroke-width="6.000000"
	d="
M443.000000,387.000000 
	C446.833344,387.333313 450.666656,387.666656 454.500000,388.000000 
"/>
<path fill="none" opacity="1.000000" stroke="#000000" stroke-linecap="round" stroke-linejoin="round" stroke-width="5.000000"
	d="
M93.000000,514.500000 
	C94.967644,519.242920 94.013390,523.881409 92.500000,528.500000 
"/>
<path fill="none" opacity="1.000000" stroke="#000000" stroke-linecap="round" stroke-linejoin="round" stroke-width="5.000000"
	d="
M98.000000,369.000000 
	C99.731590,373.225769 98.777344,377.658142 99.000000,382.000000 
"/>
</svg>