<?xml version="1.0" standalone="no"?>

<svg version="1.0" xmlns="http://www.w3.org/2000/svg"
 width="460.000000pt" height="460.000000pt" viewBox="0 0 460.000000 460.000000"
 preserveAspectRatio="xMidYMid meet">

<g transform="translate(0.000000,460.000000) scale(0.100000,-0.100000)"
fill="#fff" stroke="none">
<path d="M0 2300 l0 -2300 2300 0 2300 0 0 2300 0 2300 -2300 0 -2300 0 0
-2300z m2382 1019 c215 -46 351 -279 277 -474 -28 -76 -99 -148 -194 -197 -38
-20 -153 -70 -255 -111 -102 -41 -264 -107 -360 -147 -96 -39 -335 -136 -530
-215 -645 -261 -620 -247 -620 -327 0 -53 28 -101 72 -125 31 -17 105 -18
1525 -16 1280 2 1498 5 1528 17 45 19 75 69 75 124 0 59 -31 86 -151 136 -289
120 -462 189 -704 283 -148 58 -317 123 -374 145 -57 22 -112 49 -122 59 -44
44 -6 139 56 139 43 0 1114 -419 1263 -494 146 -74 206 -152 206 -271 1 -111
-69 -222 -172 -272 l-57 -28 -1515 -3 c-1040 -2 -1531 1 -1566 8 -142 30 -260
190 -239 323 25 153 103 210 515 375 96 39 319 129 495 200 176 71 417 169
535 217 391 158 440 192 440 301 0 73 -73 163 -149 184 -81 22 -188 -25 -225
-99 -8 -14 -19 -51 -25 -81 -14 -67 -34 -90 -77 -90 -24 0 -39 8 -58 31 -36
42 -40 68 -22 138 19 74 49 123 108 178 55 50 96 72 163 89 65 16 92 16 157 3z"/>
</g>
</svg>
